<svg width="22" height="22" viewBox="0 0 22 22" fill="none" xmlns="http://www.w3.org/2000/svg">
<path d="M19.6429 0.5H2.35714C1.73199 0.5 1.13244 0.737053 0.690391 1.15901C0.248341 1.58097 0 2.15326 0 2.75L0 19.25C0 19.8467 0.248341 20.419 0.690391 20.841C1.13244 21.2629 1.73199 21.5 2.35714 21.5H9.0971V14.3605H6.00335V11H9.0971V8.43875C9.0971 5.52547 10.9141 3.91625 13.697 3.91625C15.0297 3.91625 16.4234 4.14313 16.4234 4.14313V7.0025H14.8878C13.3748 7.0025 12.9029 7.89875 12.9029 8.81797V11H16.2805L15.7403 14.3605H12.9029V21.5H19.6429C20.268 21.5 20.8676 21.2629 21.3096 20.841C21.7517 20.419 22 19.8467 22 19.25V2.75C22 2.15326 21.7517 1.58097 21.3096 1.15901C20.8676 0.737053 20.268 0.5 19.6429 0.5Z" fill="#3B5998"/>
</svg>


