<svg width="22" height="24" viewBox="0 0 22 24" fill="none" xmlns="http://www.w3.org/2000/svg">
<path d="M7.5625 10.1252H14.4375C14.8173 10.1252 15.125 9.78953 15.125 9.37515V8.62515C15.125 8.21078 14.8173 7.87515 14.4375 7.87515H7.5625C7.18266 7.87515 6.875 8.21078 6.875 8.62515V9.37515C6.875 9.78953 7.18266 10.1252 7.5625 10.1252ZM6.875 13.8752C6.875 14.2895 7.18266 14.6252 7.5625 14.6252H14.4375C14.8173 14.6252 15.125 14.2895 15.125 13.8752V13.1252C15.125 12.7108 14.8173 12.3752 14.4375 12.3752H7.5625C7.18266 12.3752 6.875 12.7108 6.875 13.1252V13.8752ZM11 19.5531C10.2945 19.5531 9.58891 19.3159 8.98648 18.8411L0 11.7592V21.7502C0 22.9928 0.923398 24.0002 2.0625 24.0002H19.9375C21.0766 24.0002 22 22.9928 22 21.7502V11.7592L13.0135 18.8411C12.4111 19.3155 11.7055 19.5531 11 19.5531ZM21.2098 7.63843C20.8295 7.31312 20.469 7.00703 19.9375 6.56921V4.50015C19.9375 3.25749 19.0141 2.25015 17.875 2.25015H14.5428C14.4121 2.14702 14.2905 2.05046 14.1543 1.94265C13.432 1.36749 11.9969 -0.0162616 11 0.000144627C10.0031 -0.0162616 8.5684 1.36749 7.84566 1.94265C7.70945 2.05046 7.58785 2.14702 7.45723 2.25015H4.125C2.9859 2.25015 2.0625 3.25749 2.0625 4.50015V6.56921C1.53098 7.00656 1.17047 7.31312 0.790195 7.63843C0.544052 7.84887 0.345002 8.11762 0.208104 8.42435C0.0712047 8.73108 4.23589e-05 9.06775 0 9.40891L0 9.90812L4.125 13.1589V4.50015H17.875V13.1589L22 9.90812V9.40891C22 8.71797 21.7087 8.065 21.2098 7.63843Z" fill="#B92C27"/>
</svg>
