<svg width="22" height="22" viewBox="0 0 22 22" fill="none" xmlns="http://www.w3.org/2000/svg">
<path d="M19.6429 0.5H2.35714C1.0558 0.5 0 1.50781 0 2.75V19.25C0 20.4922 1.0558 21.5 2.35714 21.5H19.6429C20.9442 21.5 22 20.4922 22 19.25V2.75C22 1.50781 20.9442 0.5 19.6429 0.5ZM17.2415 7.94375C17.2513 8.075 17.2513 8.21094 17.2513 8.34219C17.2513 12.4062 14.0103 17.0891 8.08795 17.0891C6.26116 17.0891 4.56696 16.5828 3.14286 15.7109C3.40313 15.7391 3.65357 15.7484 3.91875 15.7484C5.42634 15.7484 6.81116 15.2609 7.91607 14.4359C6.50179 14.4078 5.31339 13.5219 4.9058 12.3031C5.40179 12.3734 5.84866 12.3734 6.35938 12.2469C4.88616 11.9609 3.78125 10.7234 3.78125 9.22812V9.19062C4.20848 9.42031 4.70937 9.56094 5.23482 9.57969C4.79307 9.2992 4.43093 8.91869 4.18072 8.4721C3.93052 8.02552 3.80002 7.52675 3.80089 7.02031C3.80089 6.44844 3.95804 5.92344 4.23795 5.46875C5.82411 7.33437 8.2058 8.55313 10.8772 8.68438C10.4205 6.59844 12.0558 4.90625 14.0201 4.90625C14.9482 4.90625 15.783 5.27656 16.3723 5.87656C17.0991 5.74531 17.7964 5.4875 18.4152 5.13594C18.1746 5.84844 17.6688 6.44844 17.0009 6.82812C17.6491 6.7625 18.2777 6.58906 18.8571 6.35C18.4201 6.96406 17.8701 7.50781 17.2415 7.94375Z" fill="#1DA1F2"/>
</svg>
